<svg version="1.1" xmlns="http://www.w3.org/2000/svg" xmlns:xlink="http://www.w3.org/1999/xlink" width="89.55263" height="89" viewBox="0,0,89.55263,89"><defs><linearGradient x1="432.72368" y1="271" x2="432.72368" y2="355" gradientUnits="userSpaceOnUse" id="color-1"><stop offset="0" stop-color="#ff0000" stop-opacity="0"/><stop offset="1" stop-color="#ff0000"/></linearGradient></defs><g transform="translate(-387.94737,-268.5)"><g data-paper-data="{&quot;isPaintingLayer&quot;:true}" fill-rule="nonzero" stroke-linejoin="miter" stroke-miterlimit="10" stroke-dasharray="" stroke-dashoffset="0" style="mix-blend-mode: normal"><path d="M390.44737,355v-84h84.55263v84z" fill="url(#color-1)" stroke="#000000" stroke-width="5" stroke-linecap="butt"/><text transform="translate(409.22946,327.16187) scale(0.25733,0.25733)" font-size="40" xml:space="preserve" fill="#ff0000" fill-rule="nonzero" stroke="#ff0000" stroke-width="3" stroke-linecap="butt" stroke-linejoin="miter" stroke-miterlimit="10" stroke-dasharray="" stroke-dashoffset="0" font-family="Sans Serif" font-weight="normal" text-anchor="start" style="mix-blend-mode: normal"><tspan x="0" dy="0">    OOF</tspan><tspan x="0" dy="48px">ENEMIES</tspan></text><path d="M437.01111,293.19874c0,0 1.89078,-2.80773 2.82576,-3.79937c0.7234,-0.76724 2.31402,-1.6519 2.31402,-1.6519" fill="none" stroke="#884b2b" stroke-width="3" stroke-linecap="round"/><path d="M423.57762,301.86885c0,-5.35467 4.34081,-9.69547 9.69547,-9.69547c5.35467,0 9.69547,4.34081 9.69547,9.69547c0,5.35467 -4.34081,9.69548 -9.69547,9.69548c-5.35467,0 -9.69547,-4.34082 -9.69547,-9.69548z" fill="#222422" stroke="#000000" stroke-width="3" stroke-linecap="butt"/><text transform="translate(438.65042,285.20268) rotate(33.84405) scale(0.16254,0.16254)" font-size="40" xml:space="preserve" fill="#222422" fill-rule="nonzero" stroke="none" stroke-width="1" stroke-linecap="butt" stroke-linejoin="miter" stroke-miterlimit="10" stroke-dasharray="" stroke-dashoffset="0" font-family="Sans Serif" font-weight="normal" text-anchor="start" style="mix-blend-mode: normal"><tspan x="0" dy="0">🔥</tspan></text><path d="M409.44325,326.5164v-49.29508h47.6597v49.29508z" fill="none" stroke="none" stroke-width="0" stroke-linecap="butt"/></g></g></svg>