<svg version="1.1" xmlns="http://www.w3.org/2000/svg" xmlns:xlink="http://www.w3.org/1999/xlink" width="120.5" height="117.5" viewBox="0,0,120.5,117.5"><g transform="translate(-179.75,-121.25)"><g data-paper-data="{&quot;isPaintingLayer&quot;:true}" fill-rule="nonzero" stroke-linejoin="miter" stroke-miterlimit="10" stroke-dasharray="" stroke-dashoffset="0" style="mix-blend-mode: normal"><g><path d="M179.75,238.75v-117.5h120.5v117.5z" fill="none" stroke="none" stroke-width="0" stroke-linecap="butt"/><g><path d="M218.41667,180c0,-11.92014 9.66319,-21.58334 21.58334,-21.58334c11.92014,0 21.58333,9.66319 21.58333,21.58334c0,11.92014 -9.66319,21.58334 -21.58333,21.58334c-11.92014,0 -21.58334,-9.66319 -21.58334,-21.58334z" fill="#ff0000" stroke="none" stroke-width="0" stroke-linecap="butt"/><path d="M218.41667,180c0,-11.92014 9.66319,-21.58334 21.58334,-21.58334c11.92014,0 21.58333,9.66319 21.58333,21.58334c0,11.92014 -9.66319,21.58334 -21.58333,21.58334c-11.92014,0 -21.58334,-9.66319 -21.58334,-21.58334z" fill="none" stroke="#000000" stroke-width="3.5" stroke-linecap="butt"/><path d="M229.5,166.83333l9.33333,6.5" fill="none" stroke="#000000" stroke-width="2.5" stroke-linecap="round"/><path d="M237.33333,172.33333l-0.33333,9.83333" fill="none" stroke="#000000" stroke-width="2.5" stroke-linecap="round"/><path d="M257.16667,167.83334l-8.5,5.16667" data-paper-data="{&quot;index&quot;:null}" fill="none" stroke="#000000" stroke-width="2.5" stroke-linecap="round"/><path d="M250,172.83334l-0.33334,9.83333" fill="none" stroke="#000000" stroke-width="2.5" stroke-linecap="round"/></g></g></g></g></svg>