<svg version="1.1" xmlns="http://www.w3.org/2000/svg" xmlns:xlink="http://www.w3.org/1999/xlink" width="581.08108" height="459.45946" viewBox="0,0,581.08108,459.45946"><g transform="translate(79.06907,12.19219)"><g data-paper-data="{&quot;isPaintingLayer&quot;:true}" stroke-miterlimit="10" stroke-dasharray="" stroke-dashoffset="0" style="mix-blend-mode: normal"><path d="M-79.06907,447.26727v-459.45946h581.08108v459.45946z" fill="#b8b8b8" fill-rule="nonzero" stroke="#000000" stroke-width="0" stroke-linecap="butt" stroke-linejoin="miter"/><g fill-rule="evenodd"><g><path d="M245.41923,265.87471c0.77448,0.73236 2.40298,2.34566 -1.508,5.3956c-3.91099,3.04994 -12.0231,1.46707 -12.93563,1.19097c-3.57055,-0.95581 -7.90504,-2.26727 -12.21263,-5.31369c-12.53553,-8.7731 -8.12852,-23.75021 -2.9552,-24.79962c5.05925,-1.08392 4.20289,8.7421 8.78541,16.22948c1.97831,3.33773 5.01012,5.25111 7.57513,6.64973c3.67116,1.8578 12.39689,-0.23341 13.25092,0.64753z" fill="#ffab19" stroke="#001026" stroke-width="1.2" stroke-linecap="round" stroke-linejoin="round"/><path d="M219.92642,248.0764c0.89323,3.63197 3.1178,9.03634 3.1178,9.03634c0,0 -3.90982,-2.30354 -6.89191,-1.08917c-2.38777,0.89615 -2.69078,3.54364 -2.70423,4.41113c-1.0342,-1.93151 -2.23803,-4.53689 -2.17077,-8.8743c0.06727,-4.33742 2.65743,-8.78306 5.14581,-8.77721c2.41936,0.23398 2.47201,2.11752 3.50328,5.29323z" fill="#ffffff" stroke="none" stroke-width="1" stroke-linecap="butt" stroke-linejoin="miter"/></g><path d="M247.53326,279.46314c-2.46733,0.74757 -11.05793,3.62671 -20.93192,3.7519l-0.49077,-0.02398c-0.49077,-0.02398 -0.89147,0.47732 -0.80138,1.00261c1.11083,3.32428 2.99028,9.86931 -3.87003,9.91026c-6.63219,0.10998 -13.05849,-19.38998 -6.99078,-22.1609c2.65042,-0.94119 4.34795,0.44397 5.23649,1.21085c0.5013,0.40069 1.07163,0.57325 1.67647,0.63175c1.50684,-0.04212 4.29238,-0.19538 6.5421,-0.63526c5.66409,-1.02543 7.11535,-1.7069 9.91435,-2.72764c2.79899,-1.02074 9.32296,-3.65362 12.439,1.27343c2.71828,4.18416 -0.37027,6.98491 -2.72353,7.76699z" fill="#ffab19" stroke="#001026" stroke-width="1.2" stroke-linecap="round" stroke-linejoin="round"/><path d="M272.84821,261.2249c0.43228,0.62882 4.90542,10.94679 7.80795,9.58385c3.46233,-1.56709 8.64149,-5.10488 11.60896,-0.09828c2.96747,5.0066 -6.72167,9.04746 -10.54726,9.75759c-8.9404,1.1547 -13.29187,-7.50785 -14.10847,-9.74704c-0.8166,-2.2392 -2.28015,-6.04372 -1.38284,-9.00943c1.0804,-3.15933 5.20022,-2.78438 6.62166,-0.48669z" fill="#ffab19" stroke="#001026" stroke-width="1.2" stroke-linecap="round" stroke-linejoin="round"/><g><path d="M264.92097,287.83671c1.73965,2.892 5.6407,8.92812 5.6407,8.92812c0,0 17.17419,2.08358 14.68932,10.29631c-1.48402,4.90482 -10.04187,3.56061 -20.79563,-0.81365c-0.64988,-0.32114 -1.26525,-0.75634 -1.69753,-1.38516c-1.85372,-2.92651 -7.10718,-11.48845 -10.32383,-17.31749c-4.72818,-8.65202 -9.00593,-14.67761 -9.00593,-14.67761c-6.83108,-12.40098 2.24737,-14.01194 6.98372,-18.55527c4.26664,-3.81389 5.24526,-2.52173 11.67506,0.91778c3.70567,1.74374 5.88345,2.77618 8.42741,3.42138c3.79868,1.02483 1.45771,6.29291 -0.43169,8.83395c0,0 -2.87387,3.73726 -5.01245,5.45585c-2.61883,2.07132 -4.5053,3.36816 -6.18469,3.9806z" fill="#ffab19" stroke="#001026" stroke-width="1.2" stroke-linecap="round" stroke-linejoin="round"/><path d="M257.89334,276.49684c0,0 -1.29684,-1.88647 -2.60421,-4.14965c-1.6601,-2.74342 -3.42373,-5.14465 -0.07254,-7.99044c2.88147,-2.11636 5.92497,-5.17976 10.05708,-0.31881c3.973,4.56379 0.94295,6.7597 0.94295,6.7597c-4.06249,4.37369 -8.32328,5.6992 -8.32328,5.6992z" fill="#ffffff" stroke="none" stroke-width="1" stroke-linecap="butt" stroke-linejoin="miter"/></g><path d="M243.49941,261.93214c1.54311,3.9531 4.21342,9.11881 -1.69226,10.9427c-7.86877,1.72796 -10.00678,-11.3697 -9.93952,-15.70712c0.04328,-3.84664 3.69923,-5.23064 6.79538,-6.4105c5.9747,-2.05202 11.0474,-4.00342 15.09235,-0.91195c5.08207,3.77878 -0.40478,7.09898 -3.87764,8.28936c-2.09062,0.73704 -4.21575,1.58815 -5.71205,2.00698c-0.51476,0.46679 -0.8359,1.11667 -0.66626,1.79054z" fill="#ffab19" stroke="#001026" stroke-width="1.2" stroke-linecap="round" stroke-linejoin="round"/><path d="M302.69123,195.92317c0.41122,-0.1246 0.94704,0.16203 0.92305,0.65281l-0.72708,13.10234c0,0 5.67814,7.56986 6.70649,11.98975c1.75194,7.378 0.31296,12.54546 0.31296,12.54546c0,0 7.37391,4.84574 6.77551,11.76162c-0.5984,6.91589 -9.34459,17.71645 -32.06588,15.44861c-22.72129,-2.26784 -38.18509,-13.29651 -42.34938,-28.75035c-4.16429,-15.45384 13.30471,-27.10142 12.34422,-26.39597l3.78228,-21.14251c0.02398,-0.49077 0.69785,-0.66041 1.08509,-0.29423l11.07549,13.18715c0,0 5.71966,-0.38607 11.14977,1.00786c3.26286,0.73821 5.93141,1.79463 8.41688,3.04467z" fill="#ffab19" stroke="#001026" stroke-width="1.2" stroke-linecap="butt" stroke-linejoin="miter"/><path d="M309.4264,234.56627c0,0 7.24931,4.43451 6.65091,11.3504c-0.5984,6.91589 -9.62829,17.00807 -32.08694,14.69519c-29.32949,-2.64863 -37.47731,-23.04298 -26.17663,-32.82163c11.33519,-9.89272 21.31214,4.45614 31.10073,6.67076c8.38529,1.91454 11.47207,-4.9955 20.51193,0.10527z" fill="#ffffff" stroke="none" stroke-width="1" stroke-linecap="butt" stroke-linejoin="miter"/><path d="M283.35947,238.64329c10.92636,6.14033 9.92503,16.10986 9.09472,19.39837c-0.1203,0.63039 -0.84294,0.87548 -1.28068,0.45401c-1.31322,-1.26441 -4.33309,-3.6205 -9.94685,-6.78698c-6.28033,-3.45139 -12.7289,-5.31279 -15.08585,-5.83016c-0.46578,-0.15647 -0.6747,-0.71451 -0.41783,-1.11607c2.84541,-5.11181 7.85875,-10.9589 17.6365,-6.11916z" data-paper-data="{&quot;index&quot;:null}" fill="#ffffff" stroke="#001026" stroke-width="1.2" stroke-linecap="round" stroke-linejoin="round"/><path d="M330.03485,242.17121c-6.67254,2.71243 -14.91978,0.34163 -14.91978,0.34163" fill="none" stroke="#001026" stroke-width="1.2" stroke-linecap="round" stroke-linejoin="round"/><path d="M324.68665,254.4979c-7.3587,-1.60393 -11.15153,-5.11715 -11.15153,-5.11715" fill="none" stroke="#001026" stroke-width="1.2" stroke-linecap="round" stroke-linejoin="round"/><path d="M289.35553,231.35724c2.39538,0.72475 4.8358,1.71215 4.70828,2.54512c-0.3691,1.63143 -3.04643,4.30759 -4.90599,3.86946c-2.12221,-0.39309 -6.05016,-4.69423 -5.49797,-6.51928c0.30008,-1.4033 3.41436,-0.58554 5.69568,0.1047z" fill="#001026" stroke="#001026" stroke-width="1.2" stroke-linecap="round" stroke-linejoin="round"/><path d="M238.54366,214.11583c0,0 8.84331,6.16188 11.76573,10.90583" fill="none" stroke="#001026" stroke-width="1.2" stroke-linecap="round" stroke-linejoin="round"/><path d="M249.44366,229.1175c-5.49153,0.4551 -13.55276,-3.35352 -13.55276,-3.35352" fill="none" stroke="#001026" stroke-width="1.2" stroke-linecap="round" stroke-linejoin="round"/><g><path d="M306.85318,222.08398c1.75486,6.1338 0.10881,11.98567 -3.70624,13.07251c-3.81506,1.08684 -8.33732,-2.89609 -10.20625,-9.06441c-1.75486,-6.1338 2.09793,-3.84752 5.91298,-4.93437c3.84957,-1.20091 6.24465,-5.20754 7.99951,0.92626z" fill="#ffffff" stroke="#001026" stroke-width="1.2" stroke-linecap="round" stroke-linejoin="round"/><path d="M304.42973,228.44767c-0.37963,1.25472 -1.60277,2.00522 -2.74342,1.6601c-1.14066,-0.34512 -1.74257,-1.64781 -1.36294,-2.90253c0.37963,-1.25472 1.60277,-2.00522 2.74342,-1.6601c1.14066,0.34512 1.74257,1.64781 1.36294,2.90253" fill="#001026" stroke="none" stroke-width="1" stroke-linecap="butt" stroke-linejoin="miter"/></g><g><path d="M277.59856,216.71883c1.90344,6.05425 -0.18834,12.14477 -3.92384,13.3802c-4.4199,1.02835 -8.95562,-2.0871 -10.85906,-8.14135c-2.01751,-6.08876 1.09912,-3.83846 5.39442,-5.27803c4.32981,-1.55364 7.48504,-6.01507 9.38848,0.03918z" fill="#ffffff" stroke="#001026" stroke-width="1.2" stroke-linecap="round" stroke-linejoin="round"/><path d="M274.91247,223.12756c-0.37963,1.25472 -1.60277,2.00522 -2.74342,1.6601c-1.14066,-0.34512 -1.74257,-1.64781 -1.36294,-2.90253c0.37963,-1.25472 1.60277,-2.00522 2.74342,-1.6601c1.10614,0.45919 1.74257,1.64781 1.36294,2.90253" fill="#001026" stroke="none" stroke-width="1" stroke-linecap="butt" stroke-linejoin="miter"/></g></g><path d="M197.97147,237.78078l-13.66667,-21.33333" fill="none" fill-rule="nonzero" stroke="#000000" stroke-width="5" stroke-linecap="round" stroke-linejoin="miter"/><path d="M228.97147,213.11412l-16.66667,-26.66667" fill="none" fill-rule="nonzero" stroke="#000000" stroke-width="5" stroke-linecap="round" stroke-linejoin="miter"/><path d="M194.3048,203.44745l-14,-23" fill="none" fill-rule="nonzero" stroke="#000000" stroke-width="5" stroke-linecap="round" stroke-linejoin="miter"/><path d="M54.96576,175.47849l22.80218,-115.26626l118.20923,23.38436l-22.80218,115.26626z" fill="none" fill-rule="nonzero" stroke="none" stroke-width="0" stroke-linecap="butt" stroke-linejoin="miter"/><g fill-rule="nonzero" stroke-linejoin="miter"><path d="M113.31046,83.82053c2.31323,-11.69353 13.66797,-19.29778 25.36151,-16.98454c11.69353,2.31323 19.29777,13.66797 16.98454,25.36151c-2.31323,11.69353 -13.66798,19.29778 -25.36151,16.98454c-11.69353,-2.31324 -19.29778,-13.66798 -16.98454,-25.36151z" fill="#ff0000" stroke="none" stroke-width="0" stroke-linecap="butt"/><path d="M113.31046,83.82053c2.31323,-11.69353 13.66797,-19.29778 25.36151,-16.98454c11.69353,2.31323 19.29777,13.66797 16.98454,25.36151c-2.31323,11.69353 -13.66798,19.29778 -25.36151,16.98454c-11.69353,-2.31324 -19.29778,-13.66798 -16.98454,-25.36151z" fill="none" stroke="#000000" stroke-width="3.5" stroke-linecap="butt"/><path d="M134.63273,81.24267l-7.8945,-8.18766" fill="none" stroke="#000000" stroke-width="2.5" stroke-linecap="round"/><path d="M131.12005,89.5523l2.23526,-9.5817" fill="none" stroke="#000000" stroke-width="2.5" stroke-linecap="round"/><path d="M153.68488,79.40503l-9.34106,3.41893" data-paper-data="{&quot;index&quot;:null}" fill="none" stroke="#000000" stroke-width="2.5" stroke-linecap="round"/><path d="M145.68415,82.9192l-2.23527,9.58171" fill="none" stroke="#000000" stroke-width="2.5" stroke-linecap="round"/></g><path d="M15.96577,219.47849l22.80218,-115.26626l118.20923,23.38436l-22.80218,115.26626z" fill="none" fill-rule="nonzero" stroke="none" stroke-width="0" stroke-linecap="butt" stroke-linejoin="miter"/><g fill-rule="nonzero" stroke-linejoin="miter"><path d="M33.76692,200.88059c2.31324,-11.69353 13.66797,-19.29778 25.36151,-16.98454c11.69353,2.31324 19.29777,13.66797 16.98453,25.36151c-2.31323,11.69353 -13.66797,19.29778 -25.3615,16.98455c-11.69353,-2.31323 -19.29778,-13.66797 -16.98454,-25.36151z" fill="#ff0000" stroke="none" stroke-width="0" stroke-linecap="butt"/><path d="M33.76692,200.88059c2.31324,-11.69353 13.66797,-19.29778 25.36151,-16.98454c11.69353,2.31324 19.29777,13.66797 16.98453,25.36151c-2.31323,11.69353 -13.66797,19.29778 -25.3615,16.98455c-11.69353,-2.31323 -19.29778,-13.66797 -16.98454,-25.36151z" fill="none" stroke="#000000" stroke-width="3.5" stroke-linecap="butt"/><path d="M55.08919,198.30273l-7.8945,-8.18766" fill="none" stroke="#000000" stroke-width="2.5" stroke-linecap="round"/><path d="M53.81176,197.03066l-2.23526,9.5817" fill="none" stroke="#000000" stroke-width="2.5" stroke-linecap="round"/><path d="M64.80027,199.88402l9.34106,-3.41893" data-paper-data="{&quot;index&quot;:null}" fill="none" stroke="#000000" stroke-width="2.5" stroke-linecap="round"/><path d="M63.90533,209.56097l2.23527,-9.5817" fill="none" stroke="#000000" stroke-width="2.5" stroke-linecap="round"/></g><path d="M-10.03423,117.47849l22.80218,-115.26626l118.20923,23.38436l-22.80218,115.26626z" fill="none" fill-rule="nonzero" stroke="none" stroke-width="0" stroke-linecap="butt" stroke-linejoin="miter"/><g fill-rule="nonzero" stroke-linejoin="miter"><path d="M161.29845,135.34906c2.31323,-11.69353 13.66797,-19.29778 25.36151,-16.98454c11.69353,2.31324 19.29777,13.66797 16.98454,25.36151c-2.31323,11.69353 -13.66798,19.29778 -25.36151,16.98454c-11.69353,-2.31324 -19.29778,-13.66797 -16.98454,-25.36151z" fill="#ff0000" stroke="none" stroke-width="0" stroke-linecap="butt"/><path d="M161.29845,135.34906c2.31323,-11.69353 13.66797,-19.29778 25.36151,-16.98454c11.69353,2.31324 19.29777,13.66797 16.98454,25.36151c-2.31323,11.69353 -13.66798,19.29778 -25.36151,16.98454c-11.69353,-2.31324 -19.29778,-13.66797 -16.98454,-25.36151z" fill="none" stroke="#000000" stroke-width="3.5" stroke-linecap="butt"/><path d="M174.72622,124.58354l7.8945,8.18766" fill="none" stroke="#000000" stroke-width="2.5" stroke-linecap="round"/><path d="M179.10804,141.08083l2.23526,-9.5817" fill="none" stroke="#000000" stroke-width="2.5" stroke-linecap="round"/><path d="M201.67287,130.93356l-9.34106,3.41893" data-paper-data="{&quot;index&quot;:null}" fill="none" stroke="#000000" stroke-width="2.5" stroke-linecap="round"/><path d="M191.43687,144.02944l2.23527,-9.5817" fill="none" stroke="#000000" stroke-width="2.5" stroke-linecap="round"/></g><g fill-rule="nonzero" stroke-linejoin="miter"><path d="M42.33449,96.82353c2.31324,-11.69353 13.66797,-19.29777 25.36151,-16.98454c11.69353,2.31323 19.29777,13.66797 16.98453,25.36151c-2.31324,11.69353 -13.66797,19.29778 -25.3615,16.98454c-11.69353,-2.31324 -19.29778,-13.66797 -16.98454,-25.36151z" fill="#ff0000" stroke="none" stroke-width="0" stroke-linecap="butt"/><path d="M42.33449,96.82353c2.31324,-11.69353 13.66797,-19.29777 25.36151,-16.98454c11.69353,2.31323 19.29777,13.66797 16.98453,25.36151c-2.31324,11.69353 -13.66797,19.29778 -25.3615,16.98454c-11.69353,-2.31324 -19.29778,-13.66797 -16.98454,-25.36151z" fill="none" stroke="#000000" stroke-width="3.5" stroke-linecap="butt"/><path d="M63.65676,94.24568l-7.8945,-8.18766" fill="none" stroke="#000000" stroke-width="2.5" stroke-linecap="round"/><path d="M60.14407,102.5553l2.23526,-9.5817" fill="none" stroke="#000000" stroke-width="2.5" stroke-linecap="round"/><path d="M82.7089,92.40803l-9.34106,3.41893" data-paper-data="{&quot;index&quot;:null}" fill="none" stroke="#000000" stroke-width="2.5" stroke-linecap="round"/><path d="M72.4729,105.50392l2.23527,-9.5817" fill="none" stroke="#000000" stroke-width="2.5" stroke-linecap="round"/></g><g fill-rule="nonzero" stroke-linejoin="miter"><path d="M117.81496,176.91362c2.31323,-11.69353 13.66797,-19.29778 25.36151,-16.98454c11.69353,2.31324 19.29777,13.66797 16.98454,25.36151c-2.31323,11.69353 -13.66798,19.29778 -25.36151,16.98454c-11.69353,-2.31323 -19.29778,-13.66797 -16.98454,-25.36151z" fill="#ff0000" stroke="none" stroke-width="0" stroke-linecap="butt"/><path d="M117.81496,176.91362c2.31323,-11.69353 13.66797,-19.29778 25.36151,-16.98454c11.69353,2.31324 19.29777,13.66797 16.98454,25.36151c-2.31323,11.69353 -13.66798,19.29778 -25.36151,16.98454c-11.69353,-2.31323 -19.29778,-13.66797 -16.98454,-25.36151z" fill="none" stroke="#000000" stroke-width="3.5" stroke-linecap="butt"/><path d="M139.13724,174.33577l-7.8945,-8.18767" fill="none" stroke="#000000" stroke-width="2.5" stroke-linecap="round"/><path d="M135.62455,182.64539l2.23526,-9.5817" fill="none" stroke="#000000" stroke-width="2.5" stroke-linecap="round"/><path d="M158.18938,172.49812l-9.34106,3.41893" data-paper-data="{&quot;index&quot;:null}" fill="none" stroke="#000000" stroke-width="2.5" stroke-linecap="round"/><path d="M147.95338,185.59401l2.23527,-9.5817" fill="none" stroke="#000000" stroke-width="2.5" stroke-linecap="round"/></g><text transform="translate(71.27745,34.72973) scale(0.72775,0.72775)" font-size="40" xml:space="preserve" fill="#ffffff" fill-rule="nonzero" stroke="none" stroke-width="1" stroke-linecap="butt" stroke-linejoin="miter" stroke-miterlimit="10" stroke-dasharray="" stroke-dashoffset="0" font-family="Sans Serif" font-weight="normal" text-anchor="start" style="mix-blend-mode: normal"><tspan x="0" dy="0">RUN FROM THE ENEMIES</tspan></text></g></g></svg>